<svg width="250" height="73" viewBox="0 0 250 73" fill="none" xmlns="http://www.w3.org/2000/svg">
<rect width="250" height="73" fill="#860FE3"/>
<path d="M188.381 51.329C185.106 51.2202 183.56 53.0979 183.196 54.0504C165.621 54.1592 157.406 58.4499 155.496 60.5816L161.227 50.5126H214.58L220.174 60.0373C216.681 55.6832 200.707 54.2318 193.157 54.0504C192.929 53.1886 191.656 51.4379 188.381 51.329Z" fill="black"/>
<path d="M36.6732 33.58C38.6504 34.1505 40.192 35.191 41.2979 36.7013C42.4373 38.2117 43.007 40.0409 43.007 42.1889C43.007 44.2363 42.454 46.0151 41.3481 47.5255C40.2422 49.0358 38.6672 50.2105 36.6229 51.0496C34.6122 51.8551 32.2496 52.2579 29.5351 52.2579C27.3568 52.2579 25.2623 51.9726 23.2516 51.402C21.2409 50.7979 19.4983 49.942 18.0237 48.8344C17.454 48.3981 17.0519 47.945 16.8173 47.4751C16.5827 46.9717 16.4654 46.3843 16.4654 45.7131C16.4654 44.6726 16.7503 43.8 17.32 43.0951C17.8897 42.3567 18.5934 41.9876 19.4312 41.9876C19.9004 41.9876 20.3193 42.0715 20.6879 42.2393C21.0566 42.3735 21.5593 42.6085 22.196 42.9441C22.33 43.0112 22.4808 43.0951 22.6484 43.1958C22.8495 43.263 23.0673 43.3469 23.3019 43.4475C24.3743 43.9846 25.3294 44.4041 26.1672 44.7062C27.0385 44.9747 28.0103 45.1089 29.0827 45.1089C30.9594 45.1089 32.2999 44.8069 33.1042 44.2027C33.942 43.5986 34.3609 42.5917 34.3609 41.182C34.3609 39.8731 33.942 38.9333 33.1042 38.3627C32.2664 37.7921 30.8924 37.5069 28.9822 37.5069H25.8656C24.8602 37.5069 24.0727 37.1544 23.503 36.4496C22.9332 35.7448 22.6484 34.9057 22.6484 33.9324C22.6484 32.959 22.9332 32.12 23.503 31.4151C24.0727 30.7103 24.8602 30.3579 25.8656 30.3579H28.0774C29.9205 30.3579 31.261 30.0894 32.0988 29.5524C32.9366 29.0154 33.3555 28.1595 33.3555 26.9848C33.3555 25.743 32.9869 24.7864 32.2496 24.1151C31.5123 23.4103 30.4902 23.0579 29.1832 23.0579C28.2449 23.0579 27.3568 23.2089 26.519 23.511C25.7148 23.8131 24.8099 24.2158 23.8046 24.7193L22.7489 25.2227C22.1122 25.5584 21.6095 25.8101 21.2409 25.9779C20.8723 26.1122 20.4534 26.1793 19.9842 26.1793C19.1464 26.1793 18.4426 25.8269 17.8729 25.122C17.3032 24.3836 17.0184 23.4942 17.0184 22.4538C17.0184 21.7489 17.1357 21.1616 17.3702 20.6917C17.6048 20.2218 18.007 19.7687 18.5767 19.3324C20.0177 18.2584 21.7101 17.4193 23.6538 16.8151C25.631 16.211 27.6249 15.9089 29.6357 15.9089C32.1156 15.9089 34.2938 16.3117 36.1705 17.1172C38.0807 17.9227 39.5385 19.0639 40.5438 20.5407C41.5827 22.0174 42.1022 23.7292 42.1022 25.6758C42.1022 27.5218 41.6162 29.1496 40.6444 30.5593C39.706 31.9354 38.3823 32.9423 36.6732 33.58Z" fill="white"/>
<path d="M69.5792 16.1103C70.9196 16.1103 72.0088 16.4963 72.8466 17.2682C73.7179 18.0066 74.1536 18.9632 74.1536 20.1379V48.0289C74.1536 49.3043 73.7514 50.3112 72.9471 51.0496C72.1428 51.788 71.0705 52.1572 69.73 52.1572C68.49 52.1572 67.4679 51.8384 66.6636 51.2007C65.8928 50.5294 65.4572 49.6232 65.3566 48.482C64.6529 49.6567 63.614 50.5797 62.24 51.251C60.8995 51.9223 59.4083 52.2579 57.7662 52.2579C55.6549 52.2579 53.7615 51.7209 52.0859 50.6469C50.4438 49.5393 49.1536 47.9954 48.2152 46.0151C47.2769 44.0349 46.8077 41.7694 46.8077 39.2186C46.8077 36.6678 47.2601 34.4358 48.165 32.5227C49.1033 30.5761 50.3935 29.0825 52.0356 28.042C53.7112 27.0016 55.6214 26.4813 57.7662 26.4813C59.3412 26.4813 60.7822 26.8002 62.0892 27.4379C63.4297 28.0756 64.4686 28.9315 65.2058 30.0055V19.9869C65.2058 18.8122 65.5912 17.8724 66.362 17.1676C67.1663 16.4627 68.2387 16.1103 69.5792 16.1103ZM60.4806 45.562C62.0557 45.562 63.2621 45.025 64.0999 43.951C64.9377 42.877 65.3566 41.3331 65.3566 39.3193C65.3566 37.339 64.9377 35.8287 64.0999 34.7882C63.2621 33.7142 62.0557 33.1772 60.4806 33.1772C58.9391 33.1772 57.7494 33.6974 56.9116 34.7379C56.0738 35.7784 55.6549 37.2719 55.6549 39.2186C55.6549 41.2324 56.0738 42.7931 56.9116 43.9007C57.7829 45.0082 58.9726 45.562 60.4806 45.562Z" fill="white"/>
<path d="M89.1335 52.2579C86.8881 52.2579 84.9947 52.0901 83.4532 51.7544C81.9116 51.4188 80.5544 50.8818 79.3814 50.1434C78.9123 49.9085 78.5436 49.5057 78.2755 48.9351C78.0074 48.3646 77.8734 47.7269 77.8734 47.022C77.8734 46.1158 78.108 45.3774 78.5771 44.8069C79.0798 44.2027 79.6998 43.9007 80.4371 43.9007C80.9398 43.9007 81.4089 43.9678 81.8446 44.102C82.2802 44.2027 82.8164 44.3873 83.4532 44.6558C84.5255 45.025 85.4639 45.3103 86.2682 45.5117C87.106 45.7131 88.1616 45.8138 89.4351 45.8138C90.3399 45.8138 91.0436 45.6963 91.5463 45.4613C92.0825 45.1928 92.3506 44.8236 92.3506 44.3538C92.3506 43.9846 92.2166 43.6993 91.9485 43.4979C91.7139 43.2965 91.2447 43.1119 90.541 42.9441C89.8372 42.7427 88.6475 42.4742 86.9719 42.1386C83.9893 41.568 81.8278 40.7121 80.4873 39.571C79.1804 38.3963 78.5269 36.7517 78.5269 34.6372C78.5269 33.0933 78.9961 31.7004 79.9344 30.4586C80.9062 29.2167 82.23 28.2434 83.9056 27.5386C85.5812 26.8338 87.4579 26.4813 89.5356 26.4813C91.0436 26.4813 92.5014 26.6659 93.9089 27.0351C95.3499 27.4043 96.6234 27.9246 97.7293 28.5958C98.7682 29.2 99.2876 30.1733 99.2876 31.5158C99.2876 32.4556 99.0363 33.2443 98.5336 33.882C98.0309 34.5197 97.4109 34.8386 96.6737 34.8386C95.8024 34.8386 94.7635 34.5533 93.557 33.9827C92.7528 33.6135 92.0322 33.345 91.3955 33.1772C90.7923 32.9758 90.0718 32.8751 89.234 32.8751C88.3962 32.8751 87.7427 33.0094 87.2735 33.2779C86.8044 33.5128 86.5698 33.8653 86.5698 34.3351C86.5698 34.8722 86.8881 35.2917 87.5249 35.5938C88.1951 35.8958 89.5021 36.2315 91.4458 36.6007C94.6965 37.1712 96.992 38.0439 98.3325 39.2186C99.673 40.3597 100.343 42.0211 100.343 44.2027C100.343 46.6528 99.3211 48.6163 97.2769 50.0931C95.2662 51.5363 92.5517 52.2579 89.1335 52.2579Z" fill="white"/>
<path d="M115.938 52.2579C111.917 52.2579 108.733 51.1167 106.387 48.8344C104.041 46.5521 102.868 43.4476 102.868 39.5207C102.868 36.9363 103.438 34.654 104.578 32.6738C105.717 30.6935 107.309 29.1664 109.353 28.0924C111.431 27.0184 113.793 26.4813 116.441 26.4813C117.848 26.4813 119.256 26.6659 120.663 27.0351C122.071 27.4043 123.311 27.9246 124.383 28.5958C125.422 29.2335 125.941 30.2069 125.941 31.5158C125.941 32.5563 125.69 33.4122 125.187 34.0834C124.718 34.7211 124.098 35.04 123.328 35.04C122.825 35.04 122.339 34.9728 121.87 34.8386C121.401 34.6708 120.881 34.4358 120.311 34.1338C119.641 33.8317 119.072 33.6135 118.602 33.4793C118.133 33.3115 117.614 33.2276 117.044 33.2276C113.726 33.2276 112.067 35.2581 112.067 39.3193C112.067 41.3331 112.486 42.877 113.324 43.951C114.195 44.9915 115.435 45.5117 117.044 45.5117C117.614 45.5117 118.133 45.4446 118.602 45.3103C119.105 45.1425 119.658 44.9076 120.261 44.6055C120.931 44.3034 121.468 44.0852 121.87 43.951C122.305 43.7832 122.775 43.6993 123.277 43.6993C124.048 43.6993 124.668 44.0349 125.137 44.7062C125.64 45.3439 125.891 46.183 125.891 47.2234C125.891 47.8611 125.757 48.4485 125.489 48.9855C125.221 49.4889 124.852 49.8749 124.383 50.1434C122.071 51.5531 119.256 52.2579 115.938 52.2579Z" fill="white"/>
<path d="M145.998 26.4813C148.88 26.4813 151.025 27.3708 152.433 29.1496C153.84 30.8949 154.544 33.5632 154.544 37.1544V48.0289C154.544 49.3043 154.142 50.3112 153.338 51.0496C152.533 51.788 151.444 52.1572 150.07 52.1572C148.696 52.1572 147.607 51.788 146.803 51.0496C145.998 50.3112 145.596 49.3043 145.596 48.0289V36.9531C145.596 34.5365 144.557 33.3282 142.48 33.3282C141.139 33.3282 140.067 33.7646 139.263 34.6372C138.492 35.4763 138.106 36.6174 138.106 38.0607V48.0289C138.106 49.3043 137.704 50.3112 136.9 51.0496C136.096 51.788 135.006 52.1572 133.632 52.1572C132.259 52.1572 131.169 51.788 130.365 51.0496C129.561 50.3112 129.159 49.3043 129.159 48.0289V20.1379C129.159 18.9632 129.578 18.0066 130.415 17.2682C131.253 16.4963 132.359 16.1103 133.733 16.1103C135.04 16.1103 136.096 16.4627 136.9 17.1676C137.704 17.8724 138.106 18.8122 138.106 19.9869V30.0558C139.011 28.8811 140.134 27.9917 141.474 27.3876C142.815 26.7834 144.323 26.4813 145.998 26.4813Z" fill="white"/>
<path d="M172.061 52.2579C169.346 52.2579 166.95 51.7377 164.873 50.6972C162.828 49.6232 161.236 48.1128 160.097 46.1662C158.991 44.2195 158.438 41.9372 158.438 39.3193C158.438 36.7013 158.991 34.4358 160.097 32.5227C161.236 30.5761 162.828 29.0825 164.873 28.042C166.917 27.0016 169.313 26.4813 172.061 26.4813C174.809 26.4813 177.205 27.0016 179.249 28.042C181.293 29.0825 182.869 30.5761 183.974 32.5227C185.114 34.4358 185.684 36.7013 185.684 39.3193C185.684 41.9372 185.114 44.2195 183.974 46.1662C182.869 48.1128 181.293 49.6232 179.249 50.6972C177.205 51.7377 174.809 52.2579 172.061 52.2579ZM172.061 45.562C175.245 45.562 176.836 43.4811 176.836 39.3193C176.836 35.1574 175.245 33.0765 172.061 33.0765C168.877 33.0765 167.285 35.1574 167.285 39.3193C167.285 43.4811 168.877 45.562 172.061 45.562Z" fill="white"/>
<path d="M202.202 52.2579C199.488 52.2579 197.092 51.7377 195.014 50.6972C192.97 49.6232 191.378 48.1128 190.238 46.1662C189.132 44.2195 188.579 41.9372 188.579 39.3193C188.579 36.7013 189.132 34.4358 190.238 32.5227C191.378 30.5761 192.97 29.0825 195.014 28.042C197.058 27.0016 199.454 26.4813 202.202 26.4813C204.95 26.4813 207.346 27.0016 209.39 28.042C211.435 29.0825 213.01 30.5761 214.116 32.5227C215.255 34.4358 215.825 36.7013 215.825 39.3193C215.825 41.9372 215.255 44.2195 214.116 46.1662C213.01 48.1128 211.435 49.6232 209.39 50.6972C207.346 51.7377 204.95 52.2579 202.202 52.2579ZM202.202 45.562C205.386 45.562 206.978 43.4811 206.978 39.3193C206.978 35.1574 205.386 33.0765 202.202 33.0765C199.018 33.0765 197.427 35.1574 197.427 39.3193C197.427 43.4811 199.018 45.562 202.202 45.562Z" fill="white"/>
<path d="M224.351 52.1572C223.077 52.1572 222.005 51.8216 221.134 51.1503C220.296 50.4455 219.877 49.405 219.877 48.0289V20.2889C219.877 18.9128 220.296 17.8724 221.134 17.1676C222.005 16.4627 223.077 16.1103 224.351 16.1103C225.624 16.1103 226.68 16.4627 227.518 17.1676C228.389 17.8724 228.825 18.9128 228.825 20.2889V48.0289C228.825 49.405 228.389 50.4455 227.518 51.1503C226.68 51.8216 225.624 52.1572 224.351 52.1572Z" fill="white"/>
<path d="M154.091 24.3065L147.956 36.4161C181.005 22.6552 214.899 30.5906 227.714 36.2785C225.942 32.7465 222.234 25.3798 221.579 24.1689C220.925 22.9579 219.58 22.6552 218.989 22.6552H156.818C155.182 22.6552 154.318 23.756 154.091 24.3065Z" fill="black"/>
</svg>
