<svg width="305" height="412" viewBox="0 0 305 412" fill="none" xmlns="http://www.w3.org/2000/svg">
<path opacity="0.65" d="M113.987 -56C113.987 -56 103.86 -23.8697 80.3131 12.5037C56.7659 48.8771 -179 235.908 -179 235.908M154.725 -28.33C154.725 -28.33 143.299 7.01472 123.463 36.1122C103.627 65.2096 -104.202 285.976 -104.202 285.976M192.919 4.38072L-30.6743 332.366M233.047 31.6365C233.047 31.6365 210.457 49.0672 189.542 79.7474C168.627 110.428 22.5265 369.915 22.5265 369.915M273.785 59.3066C273.785 59.3066 243.286 73.6807 219.94 106.094C196.594 138.508 83.7516 411 83.7516 411M304 197.086C304 197.086 238.042 113.046 156.493 56.7656C74.9442 0.485478 -25.03 -25.4474 -25.03 -25.4474M280.196 233.681C280.196 233.681 217.012 150.634 131.998 92.8915C46.985 35.149 -48.8345 11.1474 -48.8345 11.1474M244.079 275.383C244.079 275.383 182.878 195.274 100.914 139.602C18.9503 83.9309 -84.9515 52.8497 -84.9515 52.8497M204.636 321.991C204.636 321.991 136.351 246.867 56.2164 192.438C-23.9181 138.009 -124.394 99.4582 -124.394 99.4582M168.144 374.49C168.144 374.49 98.7859 304.693 17.6518 247.804C-63.4823 190.915 -160.886 151.957 -160.886 151.957" stroke="#3E1E88"/>
</svg>
