<svg width="211" height="346" viewBox="0 0 211 346" fill="none" xmlns="http://www.w3.org/2000/svg">
<path d="M17.0032 342.858L1.62806 341.477L0.723633 345.818H16.6013L17.0032 342.858Z" fill="#FFCDA8"/>
<path d="M17.1839 342.743L11.0339 341.477L10.4912 345.818H16.6413L17.1839 342.743Z" fill="#FFA163"/>
<path d="M155.271 64C155.271 64 114.224 107.096 98.534 123.1C82.8438 139.104 87.099 149.459 100.505 145.694C113.91 141.928 128.659 136.887 120.814 146.468C112.969 156.049 72.0439 194.81 72.0439 194.81L79.7058 236.697C79.7058 236.697 107.975 246.654 126.006 255.639C144.035 264.625 145.761 268.914 139.956 269.28C134.151 269.646 126.776 270.641 132.739 276.105C138.701 281.571 214.71 345.818 214.71 345.818L316 345.121V64L217 0L155.271 64Z" fill="white"/>
<path d="M18.1491 281.711L0 341.567L32.9494 345.121L18.1491 281.711Z" fill="#AC42FF"/>
<path d="M112.611 269.28L145.143 296.633L134.06 328.313L106.868 305.86L112.611 269.28Z" fill="#AC42FF"/>
<path d="M42.8308 267.461L18.1489 281.71V345.818H117.213L112.611 269.28L93.3042 261.906L42.8308 267.461Z" fill="#AC42FF"/>
<path d="M78.7646 196.425L92.572 215.672L87.9697 220.62L91.6142 227.471C93.0113 230.097 92.3021 233.349 89.9379 235.155L81.484 241.613V277.02L71.2333 290.2L50.7313 269.96V263.998L52.8237 237.847L47.5933 204.375L78.7646 196.425Z" fill="#FFCDA8"/>
<path d="M83.1057 209.513L86.5576 214.56L75.1038 216.456L70.9214 220.62C73.1042 223.761 72.5004 228.054 69.535 230.471L62.6037 236.121L53.9741 218.146L83.1057 209.513Z" fill="#FFA163"/>
<path d="M42.9839 228.334C42.9839 228.334 35.4602 220.107 34.8326 210.436C34.205 200.766 38.9082 196.425 38.9082 196.425L53.9746 186.114C53.9746 186.114 61.8197 183.253 62.6042 179.693C63.3887 176.132 62.0883 175.504 65.8765 175.034C69.6647 174.563 81.7462 179.584 77.8236 191.195C75.3145 198.623 65.8872 204.423 59.4209 207.637C55.912 209.381 54.3549 213.542 55.8455 217.166L57.8971 222.154L42.9839 228.334Z" fill="#F58A19"/>
<path d="M74.0436 178.012C74.8005 180.231 75.1331 182.783 74.0053 184.971C71.338 190.149 51.9104 202.801 46.5475 210.232C42.6946 215.571 45.9984 222.634 48.1636 226.187L57.8965 222.154L55.8455 217.165C54.355 213.542 55.9114 209.381 59.4204 207.637C65.8866 204.423 75.3139 198.623 77.8231 191.195C79.9331 184.95 77.412 180.616 74.0436 178.012Z" fill="#B66005"/>
<path d="M73.9009 242.58C69.8999 242.188 62.604 239.835 62.604 239.835C62.604 239.835 71.73 250.715 81.4843 250.74V241.613C81.4843 241.613 77.9019 242.973 73.9009 242.58Z" fill="#FFA163"/>
<path d="M51.3985 255.664C51.3985 255.664 49.2671 255.211 44.5601 258.192C39.853 261.173 42.0496 266.664 44.5601 270.744C47.0705 274.823 57.8967 286.12 57.8967 286.12L65.5849 276.549L50.7319 263.997L51.3985 255.664Z" fill="#E9E5F6"/>
<path d="M81.4844 267.868V254.374C81.4844 254.374 91.6309 258.035 93.3041 261.905C94.9779 265.776 83.1582 284.185 83.1582 284.185L75.8359 275.504L81.4844 267.868Z" fill="#E9E5F6"/>
<path d="M65.585 276.55L71.2335 288.788L75.8357 275.503L79.9704 280.406L73.6391 294.018V307.93H68.3044V293.6L61.8721 281.172L65.585 276.55Z" fill="#D7D1EB"/>
<path d="M67.8923 196.523L58.0841 204.765C56.3852 206.193 56.1065 208.703 57.4502 210.469L65.3612 220.863C66.757 222.696 69.3785 223.046 71.2061 221.641L80.521 214.482L67.8923 196.523Z" fill="#3B03A6"/>
<path d="M80.5212 214.482L99.9437 200.685C101.546 199.546 101.913 197.32 100.758 195.728L92.2618 184.009C91.1378 182.458 88.9838 182.084 87.4035 183.166L67.8925 196.523C66.2651 197.637 65.864 199.867 67.0013 201.478L75.5863 213.639C76.7147 215.237 78.9264 215.614 80.5212 214.482Z" fill="#535FE9"/>
<path d="M53.9746 186.114C53.9746 186.114 52.3007 185.427 50.7317 186.114C49.1627 186.802 39.6444 193.378 38.5982 194.797C37.552 196.216 39.0168 219.542 45.2929 225.818C51.5689 232.094 53.0777 220.619 53.0777 220.619C53.0777 220.619 45.6067 199.234 53.9746 186.114" fill="#535FE9"/>
<path d="M46.9131 218.076L60.1983 206.752L65.6302 213.789L51.8304 223.935L46.9131 218.076Z" fill="#3B03A6"/>
<path d="M65.6297 229.008C65.6297 235.941 60.0101 241.56 53.0775 241.56C46.145 241.56 40.5254 235.941 40.5254 229.008C40.5254 222.076 46.145 216.456 53.0775 216.456C60.0101 216.456 65.6297 222.076 65.6297 229.008Z" fill="#3B03A6"/>
<path d="M59.7404 230.699C59.7404 235.419 55.9145 239.245 51.1949 239.245C46.4753 239.245 42.6494 235.419 42.6494 230.699C42.6494 225.98 46.4753 222.154 51.1949 222.154C55.9145 222.154 59.7404 225.98 59.7404 230.699Z" fill="#535FE9"/>
<path d="M145.143 296.633L155.751 266.508L175.207 274.039L162.386 323.743C160.502 331.047 152.153 334.521 145.644 330.708L135.335 324.67L145.143 296.633Z" fill="#FFCDA8"/>
<path d="M155.751 266.508L172.091 286.12L175.207 274.039L155.751 266.508Z" fill="#FFA163"/>
<path d="M159.569 253.956L163.701 223.412L173.115 222.053L174.056 238.579L159.569 253.956Z" fill="#3B03A6"/>
<path d="M180.123 263.213L197.383 251.759L208.209 217.398L200.364 214.887L190.008 233.245L194.166 215.515L186.243 213.946L182.163 232.024L169.928 236.745C164.967 238.66 161.386 243.053 160.512 248.298L159.569 253.956L180.123 263.213Z" fill="#535FE9"/>
<path d="M159.569 253.956L155.751 266.508L178.787 276.106L180.123 263.213L159.569 253.956Z" fill="#3B03A6"/>
<path d="M186.086 251.341L184.935 240.88L191.629 238.004L197.383 251.759L202.299 226.55L194.943 224.498L192.153 234.29L196.127 227.178L199.527 228.852L196.964 244.751L191.943 235.441L182.402 239.043L186.086 251.341Z" fill="#3B03A6"/>
<path d="M126.006 321.662L113.218 279.665L115.148 312.697L126.006 321.662Z" fill="#860FE3"/>
<path d="M18.149 281.71L10.8882 342.741L18.149 343.525V281.71Z" fill="#860FE3"/>
<path d="M38.2896 298.36C38.2896 298.36 65.8729 326.103 72.6065 325.907C79.3401 325.712 95.2612 316.925 95.2612 316.925C95.2612 316.925 80.5363 336.381 70.5241 333.871C60.5119 331.36 38.2896 298.36 38.2896 298.36Z" fill="#860FE3"/>
<path d="M87.9696 220.62L92.5718 215.672L84.4487 220.62H87.9696Z" fill="#FFA163"/>
<path d="M93.8921 192.929L76.1672 205.053C75.6168 205.43 74.865 205.289 74.4878 204.738C74.1112 204.187 74.2524 203.435 74.8034 203.058L92.5277 190.935C93.0787 190.558 93.8306 190.699 94.2072 191.25C94.5837 191.801 94.4432 192.553 93.8921 192.929Z" fill="#3B03A6"/>
<path d="M184.079 221.417C180.881 230.953 170.559 236.091 161.023 232.894C151.488 229.696 146.349 219.374 149.547 209.839C152.745 200.303 163.067 195.165 172.602 198.362C182.138 201.56 187.276 211.882 184.079 221.417Z" stroke="#F43018" stroke-width="3.484" stroke-miterlimit="10" stroke-linejoin="round"/>
<path d="M179.025 202.115C190.486 197.785 199.086 196.317 200.381 198.919C202.216 202.607 188.676 213.077 170.136 222.305C151.597 231.534 135.08 236.025 133.244 232.337C131.95 229.736 138.305 223.76 148.669 217.226" stroke="#F43018" stroke-width="3.484" stroke-miterlimit="10" stroke-linejoin="round"/>
<path d="M147.634 232.917C147.181 234.268 145.72 234.996 144.368 234.542C143.018 234.089 142.29 232.628 142.743 231.277C143.196 229.926 144.658 229.198 146.009 229.651C147.359 230.104 148.087 231.566 147.634 232.917Z" fill="#F43018"/>
<path d="M191.372 199.917C190.919 201.268 189.457 201.996 188.106 201.543C186.755 201.089 186.028 199.628 186.48 198.277C186.933 196.926 188.396 196.199 189.746 196.651C191.097 197.104 191.825 198.567 191.372 199.917Z" fill="#F43018"/>
<g opacity="0.5">
<g opacity="0.5">
<path opacity="0.5" d="M176.14 130.645L150.504 162.496L154.906 123.788" stroke="black" stroke-width="1.33333" stroke-miterlimit="10" stroke-linejoin="round"/>
</g>
<g opacity="0.5">
<path opacity="0.5" d="M150.505 162.496L164.583 139.197L142.372 135.068L150.505 162.496Z" stroke="#2B789D" stroke-width="1.33333" stroke-miterlimit="10" stroke-linejoin="round"/>
</g>
<g opacity="0.5">
<path opacity="0.5" d="M142.372 135.068L154.906 123.788L176.14 130.644L164.583 139.197L142.372 135.068Z" stroke="#2B789D" stroke-width="1.33333" stroke-miterlimit="10" stroke-linejoin="round"/>
</g>
</g>
<g opacity="0.5">
<g opacity="0.5">
<path opacity="0.5" d="M212.294 316.092C206.814 316.092 202.372 311.65 202.372 306.17C202.372 300.69 206.814 296.247 212.294 296.247C217.775 296.247 222.217 300.69 222.217 306.17C222.217 311.65 217.775 316.092 212.294 316.092ZM212.294 290.551C203.669 290.551 196.676 297.544 196.676 306.17C196.676 314.795 203.669 321.788 212.294 321.788C220.92 321.788 227.913 314.795 227.913 306.17C227.913 297.544 220.92 290.551 212.294 290.551Z" stroke="#D740A5" stroke-width="1.33333" stroke-miterlimit="10" stroke-linejoin="round"/>
</g>
</g>
<path d="M122.809 179.48C122.809 180.617 121.887 181.539 120.749 181.539C119.612 181.539 118.69 180.617 118.69 179.48C118.69 178.342 119.612 177.42 120.749 177.42C121.887 177.42 122.809 178.342 122.809 179.48Z" fill="#79D3FE"/>
<path d="M98.6146 158.448C98.6146 159.585 97.6926 160.508 96.5548 160.508C95.4176 160.508 94.4956 159.585 94.4956 158.448C94.4956 157.311 95.4176 156.388 96.5548 156.388C97.6926 156.388 98.6146 157.311 98.6146 158.448Z" fill="white"/>
<path d="M178.199 323.848C178.199 324.985 177.277 325.908 176.139 325.908C175.002 325.908 174.08 324.985 174.08 323.848C174.08 322.711 175.002 321.788 176.139 321.788C177.277 321.788 178.199 322.711 178.199 323.848Z" fill="white"/>
<path d="M182.478 165.207C182.478 165.797 182 166.275 181.41 166.275C180.821 166.275 180.342 165.797 180.342 165.207C180.342 164.617 180.821 164.14 181.41 164.14C182 164.14 182.478 164.617 182.478 165.207Z" fill="white"/>
<path d="M119.757 261.465C119.757 262.055 119.279 262.533 118.69 262.533C118.1 262.533 117.622 262.055 117.622 261.465C117.622 260.875 118.1 260.398 118.69 260.398C119.279 260.398 119.757 260.875 119.757 261.465Z" fill="white"/>
<path d="M187.748 333.871C187.748 334.461 187.269 334.938 186.68 334.938C186.09 334.938 185.612 334.461 185.612 333.871C185.612 333.281 186.09 332.803 186.68 332.803C187.269 332.803 187.748 333.281 187.748 333.871Z" fill="white"/>
<path d="M100.783 253.572C100.783 254.162 100.305 254.639 99.7156 254.639C99.1257 254.639 98.6475 254.162 98.6475 253.572C98.6475 252.982 99.1257 252.504 99.7156 252.504C100.305 252.504 100.783 252.982 100.783 253.572Z" fill="white"/>
<path d="M85.5156 152.723C85.5156 153.313 85.0374 153.791 84.4481 153.791C83.8581 153.791 83.3799 153.313 83.3799 152.723C83.3799 152.133 83.8581 151.656 84.4481 151.656C85.0374 151.656 85.5156 152.133 85.5156 152.723Z" fill="white"/>
<path d="M94.5508 115.743C94.5508 116.333 94.0725 116.811 93.4832 116.811C92.8933 116.811 92.415 116.333 92.415 115.743C92.415 115.153 92.8933 114.675 93.4832 114.675C94.0725 114.675 94.5508 115.153 94.5508 115.743Z" fill="white"/>
<path d="M124.944 214.56C124.944 215.15 124.466 215.628 123.877 215.628C123.287 215.628 122.809 215.15 122.809 214.56C122.809 213.97 123.287 213.493 123.877 213.493C124.466 213.493 124.944 213.97 124.944 214.56Z" fill="white"/>
<path d="M187.748 289.132C187.748 289.722 187.269 290.2 186.68 290.2C186.09 290.2 185.612 289.722 185.612 289.132C185.612 288.542 186.09 288.065 186.68 288.065C187.269 288.065 187.748 288.542 187.748 289.132Z" fill="white"/>
<path d="M101.851 182.607C101.851 183.197 101.373 183.674 100.784 183.674C100.194 183.674 99.7153 183.197 99.7153 182.607C99.7153 182.017 100.194 181.539 100.784 181.539C101.373 181.539 101.851 182.017 101.851 182.607Z" fill="#FFA163"/>
<path d="M133 116.811C133 117.401 132.522 117.878 131.933 117.878C131.343 117.878 130.865 117.401 130.865 116.811C130.865 116.221 131.343 115.743 131.933 115.743C132.522 115.743 133 116.221 133 116.811Z" fill="white"/>
<path d="M180.282 184.306H159.727C158.514 184.306 157.531 183.322 157.531 182.109C157.531 180.896 158.514 179.912 159.727 179.912H180.282C181.495 179.912 182.478 180.896 182.478 182.109C182.478 183.322 181.495 184.306 180.282 184.306Z" fill="#535FE9"/>
<path d="M167.808 192.973H159.727C158.514 192.973 157.531 191.99 157.531 190.777C157.531 189.563 158.514 188.58 159.727 188.58H167.808C169.021 188.58 170.004 189.563 170.004 190.777C170.004 191.99 169.021 192.973 167.808 192.973Z" fill="#79D3FE"/>
<path d="M197.362 130.254H185.45C184.747 130.254 184.177 129.684 184.177 128.981C184.177 128.278 184.747 127.708 185.45 127.708H197.362C198.064 127.708 198.634 128.278 198.634 128.981C198.634 129.684 198.064 130.254 197.362 130.254Z" fill="#AC42FF"/>
<path d="M190.133 135.277H185.45C184.747 135.277 184.177 134.707 184.177 134.004C184.177 133.301 184.747 132.731 185.45 132.731H190.133C190.836 132.731 191.406 133.301 191.406 134.004C191.406 134.707 190.836 135.277 190.133 135.277Z" fill="#79D3FE"/>
<path d="M216.096 277.342H204.924C204.265 277.342 203.73 276.807 203.73 276.148C203.73 275.489 204.265 274.954 204.924 274.954H216.096C216.755 274.954 217.289 275.489 217.289 276.148C217.289 276.807 216.755 277.342 216.096 277.342Z" fill="#AC42FF"/>
<path d="M209.316 282.053H204.924C204.265 282.053 203.73 281.518 203.73 280.859C203.73 280.2 204.265 279.665 204.924 279.665H209.316C209.976 279.665 210.51 280.2 210.51 280.859C210.51 281.518 209.976 282.053 209.316 282.053Z" fill="#79D3FE"/>
<g opacity="0.75">
<g opacity="0.75">
<path opacity="0.75" d="M196.964 161.834L208.501 174.654" stroke="#FFA163" stroke-width="1.33333" stroke-miterlimit="10" stroke-linejoin="round"/>
</g>
<g opacity="0.75">
<path opacity="0.75" d="M226.079 153.625L211.034 167.164L196.965 161.835L212.01 148.295L226.079 153.625Z" stroke="#FFCDA8" stroke-width="1.33333" stroke-miterlimit="10" stroke-linejoin="round"/>
</g>
<g opacity="0.75">
<path opacity="0.75" d="M237.615 166.445L222.57 179.984L208.501 174.654L223.546 161.115L237.615 166.445Z" stroke="#FFA163" stroke-width="1.33333" stroke-miterlimit="10" stroke-linejoin="round"/>
</g>
<g opacity="0.75">
<path opacity="0.75" d="M211.033 167.164L222.57 179.984" stroke="#FFCDA8" stroke-width="1.33333" stroke-miterlimit="10" stroke-linejoin="round"/>
</g>
</g>
</svg>
