<svg width="770" height="768" viewBox="0 0 770 768" fill="none" xmlns="http://www.w3.org/2000/svg">
<path d="M47 759.818L4.5 756L2 768H45.8889L47 759.818Z" fill="#FFCDA8"/>
<path d="M47.5 759.5L30.5 756L29 768H46L47.5 759.5Z" fill="#FFA163"/>
<path d="M429.2 -11C429.2 -11 315.738 108.125 272.368 152.364C228.997 196.602 240.759 225.226 277.815 214.817C314.871 204.408 355.639 190.474 333.954 216.958C312.269 243.442 199.144 350.585 199.144 350.585L220.323 466.367C220.323 466.367 298.465 493.89 348.305 518.728C398.143 543.567 402.913 555.421 386.866 556.433C370.819 557.446 350.435 560.196 366.916 575.301C383.397 590.408 593.5 768 593.5 768L873.486 766.074V-11H429.2Z" fill="white"/>
<g opacity="0.5">
<g opacity="0.5">
<path opacity="0.5" d="M830.116 304.301L726.672 428.178L647.932 362.425L751.378 238.55L830.116 304.301Z" stroke="#79D3FE" stroke-width="1.33333" stroke-miterlimit="10" stroke-linejoin="round"/>
</g>
<g opacity="0.5">
<path opacity="0.5" d="M808.805 329.823L747.983 402.656L669.245 336.904L730.066 264.071L808.805 329.823Z" stroke="#79D3FE" stroke-width="1.33333" stroke-miterlimit="10" stroke-linejoin="round"/>
</g>
<g opacity="0.5">
<path opacity="0.5" d="M788.669 353.936L768.119 378.544L689.381 312.791L709.93 288.184L788.669 353.936Z" stroke="#79D3FE" stroke-width="1.33333" stroke-miterlimit="10" stroke-linejoin="round"/>
</g>
<g opacity="0.5">
<path opacity="0.5" d="M667.683 378.919L771.127 255.042" stroke="#79D3FE" stroke-width="1.33333" stroke-miterlimit="10" stroke-linejoin="round"/>
</g>
<g opacity="0.5">
<path opacity="0.5" d="M687.301 395.302L790.746 271.424" stroke="#79D3FE" stroke-width="1.33333" stroke-miterlimit="10" stroke-linejoin="round"/>
</g>
<g opacity="0.5">
<path opacity="0.5" d="M706.92 411.684L810.364 287.807" stroke="#79D3FE" stroke-width="1.33333" stroke-miterlimit="10" stroke-linejoin="round"/>
</g>
</g>
<path d="M50.1678 590.794L0 756.248L91.0785 766.074L50.1678 590.794Z" fill="#AC42FF"/>
<path d="M311.28 556.433L401.205 632.042L370.57 719.613L295.405 657.549L311.28 556.433Z" fill="#AC42FF"/>
<path d="M118.393 551.405L50.1675 590.794V768H324L311.28 556.434L257.911 536.05L118.393 551.405Z" fill="#AC42FF"/>
<path d="M217.721 355.049L255.888 408.251L243.166 421.928L253.24 440.865C257.102 448.124 255.142 457.114 248.606 462.105L225.238 479.956V577.83L196.903 614.261L140.232 558.313V541.832L146.016 469.547L131.558 377.024L217.721 355.049Z" fill="#FFCDA8"/>
<path d="M229.721 391.226L239.262 405.178L207.602 410.419L196.041 421.927C202.075 430.612 200.406 442.476 192.209 449.159L173.049 464.776L149.195 415.089L229.721 391.226Z" fill="#FFA163"/>
<path d="M118.815 443.251C118.815 443.251 98.0182 420.511 96.2834 393.779C94.5486 367.047 107.549 355.049 107.549 355.049L149.196 326.547C149.196 326.547 170.881 318.638 173.05 308.797C175.218 298.955 171.624 297.22 182.095 295.919C192.566 294.618 225.962 308.497 215.119 340.591C208.183 361.124 182.124 377.156 164.25 386.04C154.551 390.861 150.247 402.363 154.367 412.38L160.038 426.168L118.815 443.251Z" fill="#F58A19"/>
<path d="M204.671 304.152C206.763 310.285 207.683 317.339 204.565 323.388C197.192 337.7 143.491 372.674 128.666 393.215C118.016 407.973 127.149 427.495 133.134 437.318L160.037 426.168L154.368 412.379C150.248 402.362 154.55 390.861 164.25 386.039C182.123 377.155 208.182 361.126 215.118 340.592C220.951 323.331 213.982 311.348 204.671 304.152Z" fill="#B66005"/>
<path d="M204.277 482.631C193.217 481.547 173.05 475.041 173.05 475.041C173.05 475.041 198.276 505.116 225.239 505.185V479.956C225.239 479.956 215.336 483.715 204.277 482.631Z" fill="#FFA163"/>
<path d="M142.075 518.796C142.075 518.796 136.184 517.544 123.173 525.784C110.162 534.024 116.233 549.204 123.173 560.481C130.112 571.757 160.038 602.984 160.038 602.984L181.29 576.528L140.233 541.831L142.075 518.796Z" fill="#E9E5F6"/>
<path d="M225.239 552.53V515.231C225.239 515.231 253.286 525.35 257.911 536.049C262.538 546.748 229.866 597.635 229.866 597.635L209.625 573.638L225.239 552.53Z" fill="#E9E5F6"/>
<path d="M181.29 576.528L196.904 610.358L209.625 573.636L221.054 587.189L203.553 624.814V663.27H188.807V623.658L171.027 589.305L181.29 576.528Z" fill="#D7D1EB"/>
<path d="M187.668 355.319L160.556 378.102C155.86 382.049 155.089 388.988 158.804 393.868L180.671 422.599C184.529 427.668 191.776 428.634 196.828 424.752L222.576 404.961L187.668 355.319Z" fill="#3B03A6"/>
<path d="M222.576 404.96L276.264 366.824C280.693 363.677 281.706 357.522 278.516 353.122L255.03 320.728C251.923 316.441 245.969 315.409 241.6 318.399L187.668 355.318C183.17 358.398 182.061 364.563 185.205 369.017L208.935 402.631C212.055 407.047 218.168 408.092 222.576 404.96Z" fill="#535FE9"/>
<path d="M149.196 326.548C149.196 326.548 144.569 324.648 140.232 326.548C135.895 328.447 109.584 346.627 106.693 350.549C103.801 354.47 107.85 418.948 125.198 436.296C142.546 453.645 146.717 421.927 146.717 421.927C146.717 421.927 126.065 362.814 149.196 326.548Z" fill="#535FE9"/>
<path d="M129.676 414.895L166.399 383.594L181.414 403.046L143.269 431.092L129.676 414.895Z" fill="#3B03A6"/>
<path d="M181.414 445.115C181.414 464.278 165.88 479.812 146.717 479.812C127.554 479.812 112.021 464.278 112.021 445.115C112.021 425.952 127.554 410.419 146.717 410.419C165.88 410.419 181.414 425.952 181.414 445.115Z" fill="#3B03A6"/>
<path d="M165.134 449.789C165.134 462.835 154.559 473.411 141.513 473.411C128.467 473.411 117.892 462.835 117.892 449.789C117.892 436.743 128.467 426.168 141.513 426.168C154.559 426.168 165.134 436.743 165.134 449.789Z" fill="#535FE9"/>
<path d="M401.204 632.043L430.526 548.771L484.306 569.589L448.867 706.98C443.659 727.17 420.58 736.773 402.589 726.234L374.092 709.543L401.204 632.043Z" fill="#FFCDA8"/>
<path d="M430.527 548.771L475.694 602.984L484.307 569.589L430.527 548.771Z" fill="#FFA163"/>
<path d="M441.081 514.075L452.501 429.646L478.523 425.888L481.126 471.571L441.081 514.075Z" fill="#3B03A6"/>
<path d="M497.896 539.663L545.604 508.003L575.53 413.021L553.844 406.082L525.22 456.825L536.713 407.816L514.811 403.479L503.534 453.451L469.714 466.502C456 471.793 446.103 483.937 443.686 498.437L441.081 514.075L497.896 539.663Z" fill="#535FE9"/>
<path d="M441.08 514.075L430.527 548.771L494.201 575.302L497.896 539.663L441.08 514.075Z" fill="#3B03A6"/>
<path d="M514.377 506.846L511.197 477.932L529.701 469.981L545.604 508.003L559.193 438.32L538.859 432.647L531.148 459.716L542.134 440.055L551.532 444.682L544.447 488.63L530.568 462.898L504.195 472.854L514.377 506.846Z" fill="#3B03A6"/>
<path d="M348.304 701.229L312.957 585.141L318.292 676.448L348.304 701.229Z" fill="#860FE3"/>
<path d="M50.1679 590.794L30.0977 759.496L50.1679 761.661V590.794Z" fill="#860FE3"/>
<path d="M105.84 636.817C105.84 636.817 182.086 713.504 200.699 712.962C219.311 712.423 263.321 688.135 263.321 688.135C263.321 688.135 222.618 741.915 194.942 734.976C167.267 728.036 105.84 636.817 105.84 636.817Z" fill="#860FE3"/>
<path d="M243.165 421.927L255.887 408.25L233.433 421.927H243.165Z" fill="#FFA163"/>
<path d="M259.536 345.386L210.541 378.897C209.019 379.94 206.941 379.55 205.898 378.026C204.858 376.505 205.248 374.427 206.771 373.384L255.764 339.872C257.287 338.831 259.366 339.22 260.407 340.743C261.448 342.266 261.059 344.345 259.536 345.386Z" fill="#3B03A6"/>
<path d="M508.829 424.133C499.99 450.492 471.457 464.693 445.1 455.856C418.741 447.017 404.538 418.484 413.377 392.127C422.216 365.768 450.749 351.565 477.106 360.404C503.465 369.243 517.668 397.774 508.829 424.133Z" stroke="#F43018" stroke-width="3.484" stroke-miterlimit="10" stroke-linejoin="round"/>
<path d="M494.861 370.778C526.542 358.809 550.313 354.751 553.892 361.942C558.966 372.136 521.537 401.078 470.29 426.587C419.045 452.096 373.388 464.51 368.314 454.317C364.735 447.126 382.303 430.607 410.95 412.545" stroke="#F43018" stroke-width="3.484" stroke-miterlimit="10" stroke-linejoin="round"/>
<path d="M408.09 455.919C406.837 459.653 402.797 461.665 399.062 460.413C395.329 459.16 393.318 455.12 394.569 451.386C395.821 447.651 399.863 445.641 403.597 446.891C407.33 448.144 409.342 452.186 408.09 455.919Z" fill="#F43018"/>
<path d="M528.988 364.701C527.736 368.435 523.695 370.447 519.96 369.195C516.227 367.942 514.216 363.902 515.467 360.168C516.72 356.433 520.762 354.423 524.495 355.673C528.229 356.926 530.241 360.968 528.988 364.701Z" fill="#F43018"/>
<g opacity="0.5">
<g opacity="0.5">
<path opacity="0.5" d="M486.884 173.219L416.023 261.261L428.189 154.266" stroke="black" stroke-width="1.33333" stroke-miterlimit="10" stroke-linejoin="round"/>
</g>
<g opacity="0.5">
<path opacity="0.5" d="M416.024 261.262L454.938 196.86L393.542 185.446L416.024 261.262Z" stroke="#2B789D" stroke-width="1.33333" stroke-miterlimit="10" stroke-linejoin="round"/>
</g>
<g opacity="0.5">
<path opacity="0.5" d="M393.542 185.447L428.188 154.265L486.884 173.218L454.938 196.86L393.542 185.447Z" stroke="#2B789D" stroke-width="1.33333" stroke-miterlimit="10" stroke-linejoin="round"/>
</g>
</g>
<g opacity="0.75">
<g opacity="0.75">
<path opacity="0.75" d="M660.364 591.741L638.411 494.308L705.748 561.553" stroke="#C6B6FB" stroke-width="1.33333" stroke-miterlimit="10" stroke-linejoin="round"/>
</g>
<g opacity="0.75">
<path opacity="0.75" d="M638.411 494.308L661.573 556.64L703.224 520.438L638.411 494.308Z" stroke="#8870D7" stroke-width="1.33333" stroke-miterlimit="10" stroke-linejoin="round"/>
</g>
<g opacity="0.75">
<path opacity="0.75" d="M703.225 520.438L705.749 561.554L660.364 591.741L661.572 556.641L703.225 520.438Z" stroke="#8870D7" stroke-width="1.33333" stroke-miterlimit="10" stroke-linejoin="round"/>
</g>
</g>
<g opacity="0.5">
<g opacity="0.5">
<path opacity="0.5" d="M586.823 685.831C571.675 685.831 559.396 673.552 559.396 658.404C559.396 643.257 571.675 630.976 586.823 630.976C601.972 630.976 614.251 643.257 614.251 658.404C614.251 673.552 601.972 685.831 586.823 685.831ZM586.823 615.231C562.98 615.231 543.65 634.56 543.65 658.404C543.65 682.247 562.98 701.577 586.823 701.577C610.667 701.577 629.996 682.247 629.996 658.404C629.996 634.56 610.667 615.231 586.823 615.231Z" stroke="#D740A5" stroke-width="1.33333" stroke-miterlimit="10" stroke-linejoin="round"/>
</g>
<g opacity="0.5">
<path opacity="0.5" d="M586.823 615.231V630.976C601.972 630.976 614.251 643.257 614.251 658.404H629.996C629.996 634.56 610.667 615.231 586.823 615.231Z" stroke="#9D4EC5" stroke-width="1.33333" stroke-miterlimit="10" stroke-linejoin="round"/>
</g>
</g>
<path d="M636.371 436.947C636.371 440.467 633.517 443.321 629.997 443.321C626.477 443.321 623.623 440.467 623.623 436.947C623.623 433.427 626.477 430.573 629.997 430.573C633.517 430.573 636.371 433.427 636.371 436.947Z" fill="#79D3FE"/>
<path d="M339.468 308.208C339.468 311.352 336.92 313.902 333.774 313.902C330.631 313.902 328.083 311.352 328.083 308.208C328.083 305.065 330.631 302.515 333.774 302.515C336.92 302.515 339.468 305.065 339.468 308.208Z" fill="#79D3FE"/>
<path d="M272.59 250.073C272.59 253.216 270.042 255.766 266.897 255.766C263.753 255.766 261.205 253.216 261.205 250.073C261.205 246.929 263.753 244.379 266.897 244.379C270.042 244.379 272.59 246.929 272.59 250.073Z" fill="white"/>
<path d="M492.577 707.27C492.577 710.414 490.029 712.964 486.883 712.964C483.74 712.964 481.191 710.414 481.191 707.27C481.191 704.127 483.74 701.576 486.883 701.576C490.029 701.576 492.577 704.127 492.577 707.27Z" fill="white"/>
<path d="M504.406 268.757C504.406 270.387 503.084 271.708 501.455 271.708C499.824 271.708 498.502 270.387 498.502 268.757C498.502 267.126 499.824 265.806 501.455 265.806C503.084 265.806 504.406 267.126 504.406 268.757Z" fill="white"/>
<path d="M331.034 534.832C331.034 536.463 329.712 537.783 328.083 537.783C326.452 537.783 325.13 536.463 325.13 534.832C325.13 533.202 326.452 531.881 328.083 531.881C329.712 531.881 331.034 533.202 331.034 534.832Z" fill="white"/>
<path d="M518.971 734.976C518.971 736.607 517.65 737.927 516.021 737.927C514.39 737.927 513.068 736.607 513.068 734.976C513.068 733.345 514.39 732.025 516.021 732.025C517.65 732.025 518.971 733.345 518.971 734.976Z" fill="white"/>
<path d="M278.585 513.013C278.585 514.644 277.263 515.964 275.634 515.964C274.004 515.964 272.682 514.644 272.682 513.013C272.682 511.383 274.004 510.062 275.634 510.062C277.263 510.062 278.585 511.383 278.585 513.013Z" fill="white"/>
<path d="M236.382 234.248C236.382 235.879 235.06 237.199 233.431 237.199C231.8 237.199 230.479 235.879 230.479 234.248C230.479 232.617 231.8 231.297 233.431 231.297C235.06 231.297 236.382 232.617 236.382 234.248Z" fill="white"/>
<path d="M261.357 132.028C261.357 133.659 260.035 134.979 258.406 134.979C256.775 134.979 255.453 133.659 255.453 132.028C255.453 130.397 256.775 129.077 258.406 129.077C260.035 129.077 261.357 130.397 261.357 132.028Z" fill="white"/>
<path d="M345.371 405.178C345.371 406.809 344.049 408.129 342.42 408.129C340.789 408.129 339.467 406.809 339.467 405.178C339.467 403.547 340.789 402.227 342.42 402.227C344.049 402.227 345.371 403.547 345.371 405.178Z" fill="white"/>
<path d="M698.383 216.001C698.383 217.632 697.061 218.952 695.432 218.952C693.801 218.952 692.479 217.632 692.479 216.001C692.479 214.37 693.801 213.05 695.432 213.05C697.061 213.05 698.383 214.37 698.383 216.001Z" fill="#FFA163"/>
<path d="M686.008 457.279C686.008 458.909 684.686 460.23 683.057 460.23C681.426 460.23 680.104 458.909 680.104 457.279C680.104 455.648 681.426 454.328 683.057 454.328C684.686 454.328 686.008 455.648 686.008 457.279Z" fill="#FFA163"/>
<path d="M709.769 645.462C709.769 647.093 708.447 648.413 706.818 648.413C705.187 648.413 703.865 647.093 703.865 645.462C703.865 643.831 705.187 642.511 706.818 642.511C708.447 642.511 709.769 643.831 709.769 645.462Z" fill="white"/>
<path d="M518.971 611.309C518.971 612.94 517.65 614.26 516.021 614.26C514.39 614.26 513.068 612.94 513.068 611.309C513.068 609.679 514.39 608.358 516.021 608.358C517.65 608.358 518.971 609.679 518.971 611.309Z" fill="white"/>
<path d="M281.536 316.853C281.536 318.483 280.214 319.804 278.585 319.804C276.955 319.804 275.633 318.483 275.633 316.853C275.633 315.222 276.955 313.902 278.585 313.902C280.214 313.902 281.536 315.222 281.536 316.853Z" fill="#FFA163"/>
<path d="M599.181 508.003C599.181 509.633 597.86 510.954 596.231 510.954C594.6 510.954 593.278 509.633 593.278 508.003C593.278 506.372 594.6 505.052 596.231 505.052C597.86 505.052 599.181 506.372 599.181 508.003Z" fill="white"/>
<path d="M641.363 710.222C641.363 711.852 640.041 713.172 638.412 713.172C636.781 713.172 635.459 711.852 635.459 710.222C635.459 708.591 636.781 707.271 638.412 707.271C640.041 707.271 641.363 708.591 641.363 710.222Z" fill="#FFA163"/>
<path d="M367.639 134.979C367.639 136.61 366.318 137.93 364.689 137.93C363.058 137.93 361.736 136.61 361.736 134.979C361.736 133.349 363.058 132.028 364.689 132.028C366.318 132.028 367.639 133.349 367.639 134.979Z" fill="white"/>
<path d="M706.817 152.652C706.817 155.796 704.269 158.346 701.124 158.346C697.98 158.346 695.432 155.796 695.432 152.652C695.432 149.508 697.98 146.958 701.124 146.958C704.269 146.958 706.817 149.508 706.817 152.652Z" fill="#79D3FE"/>
<path d="M675.989 672.742C675.989 675.885 673.441 678.435 670.295 678.435C667.152 678.435 664.604 675.885 664.604 672.742C664.604 669.598 667.152 667.048 670.295 667.048C673.441 667.048 675.989 669.598 675.989 672.742Z" fill="#79D3FE"/>
<path d="M498.334 321.548H441.518C438.165 321.548 435.446 318.829 435.446 315.476C435.446 312.123 438.165 309.404 441.518 309.404H498.334C501.687 309.404 504.406 312.123 504.406 315.476C504.406 318.829 501.687 321.548 498.334 321.548Z" fill="#535FE9"/>
<path d="M463.854 345.507H441.518C438.165 345.507 435.446 342.789 435.446 339.435C435.446 336.082 438.165 333.363 441.518 333.363H463.854C467.208 333.363 469.926 336.082 469.926 339.435C469.926 342.789 467.208 345.507 463.854 345.507Z" fill="#79D3FE"/>
<path d="M545.546 172.139H512.619C510.676 172.139 509.101 170.564 509.101 168.621C509.101 166.676 510.676 165.101 512.619 165.101H545.546C547.489 165.101 549.065 166.676 549.065 168.621C549.065 170.564 547.489 172.139 545.546 172.139Z" fill="#AC42FF"/>
<path d="M525.564 186.024H512.619C510.676 186.024 509.101 184.449 509.101 182.506C509.101 180.561 510.676 178.986 512.619 178.986H525.564C527.507 178.986 529.082 180.561 529.082 182.506C529.082 184.449 527.507 186.024 525.564 186.024Z" fill="#79D3FE"/>
<path d="M597.33 578.719H566.451C564.629 578.719 563.151 577.241 563.151 575.419C563.151 573.596 564.629 572.118 566.451 572.118H597.33C599.154 572.118 600.63 573.596 600.63 575.419C600.63 577.241 599.154 578.719 597.33 578.719Z" fill="#AC42FF"/>
<path d="M578.591 591.741H566.451C564.629 591.741 563.151 590.263 563.151 588.441C563.151 586.618 564.629 585.14 566.451 585.14H578.591C580.414 585.14 581.89 586.618 581.89 588.441C581.89 590.263 580.414 591.741 578.591 591.741Z" fill="#79D3FE"/>
<g opacity="0.75">
<g opacity="0.75">
<path opacity="0.75" d="M586.035 222.008L617.925 257.444" stroke="#FFA163" stroke-width="1.33333" stroke-miterlimit="10" stroke-linejoin="round"/>
</g>
<g opacity="0.75">
<path opacity="0.75" d="M544.447 259.433L576.337 294.869" stroke="#FFA163" stroke-width="1.33333" stroke-miterlimit="10" stroke-linejoin="round"/>
</g>
<g opacity="0.75">
<path opacity="0.75" d="M624.925 236.741L583.338 274.166L544.448 259.434L586.036 222.009L624.925 236.741Z" stroke="#FFCDA8" stroke-width="1.33333" stroke-miterlimit="10" stroke-linejoin="round"/>
</g>
<g opacity="0.75">
<path opacity="0.75" d="M656.814 272.177L615.227 309.603L576.337 294.87L617.924 257.445L656.814 272.177Z" stroke="#FFA163" stroke-width="1.33333" stroke-miterlimit="10" stroke-linejoin="round"/>
</g>
<g opacity="0.75">
<path opacity="0.75" d="M583.337 274.166L615.227 309.602" stroke="#FFCDA8" stroke-width="1.33333" stroke-miterlimit="10" stroke-linejoin="round"/>
</g>
<g opacity="0.75">
<path opacity="0.75" d="M624.925 236.741L656.814 272.176" stroke="#FFCDA8" stroke-width="1.33333" stroke-miterlimit="10" stroke-linejoin="round"/>
</g>
</g>
</svg>
