<svg width="104" height="22" viewBox="0 0 104 22" fill="none" xmlns="http://www.w3.org/2000/svg">
<path d="M84.1933 17.4434C82.5895 17.3898 81.8321 18.3146 81.6539 18.7836C73.0468 18.8372 69.0239 20.9502 68.0884 22.0001L70.8951 17.0414H97.0238L99.7636 21.732C98.0529 19.5877 90.2299 18.873 86.5322 18.7836C86.4208 18.3592 85.7971 17.497 84.1933 17.4434Z" fill="#860FE3"/>
<path d="M9.89648 8.70248C10.8648 8.98347 11.6198 9.49587 12.1614 10.2397C12.7194 10.9835 12.9984 11.8843 12.9984 12.9421C12.9984 13.9504 12.7276 14.8264 12.186 15.5702C11.6444 16.3141 10.873 16.8926 9.87187 17.3058C8.88714 17.7025 7.73009 17.9008 6.40071 17.9008C5.33393 17.9008 4.30817 17.7603 3.32345 17.4793C2.33872 17.1818 1.48529 16.7603 0.763162 16.2149C0.484156 16 0.287211 15.7769 0.172327 15.5455C0.0574423 15.2975 0 15.0083 0 14.6777C0 14.1653 0.139503 13.7355 0.418508 13.3884C0.697513 13.0248 1.04217 12.843 1.45247 12.843C1.68224 12.843 1.88739 12.8843 2.06792 12.9669C2.24845 13.0331 2.49464 13.1488 2.80647 13.314C2.87211 13.3471 2.94597 13.3884 3.02803 13.438C3.1265 13.4711 3.23318 13.5124 3.34806 13.562C3.87325 13.8264 4.34099 14.0331 4.7513 14.1818C5.17801 14.314 5.65396 14.3802 6.17915 14.3802C7.09822 14.3802 7.75471 14.2314 8.1486 13.9339C8.5589 13.6364 8.76405 13.1405 8.76405 12.4463C8.76405 11.8017 8.5589 11.3388 8.1486 11.0579C7.7383 10.7769 7.0654 10.6364 6.12991 10.6364H4.60359C4.11123 10.6364 3.72554 10.4628 3.44654 10.1157C3.16753 9.7686 3.02803 9.35537 3.02803 8.87603C3.02803 8.39669 3.16753 7.98347 3.44654 7.63636C3.72554 7.28926 4.11123 7.1157 4.60359 7.1157H5.68679C6.58945 7.1157 7.24593 6.98347 7.65624 6.71901C8.06654 6.45455 8.27169 6.03306 8.27169 5.45455C8.27169 4.84298 8.09115 4.3719 7.73009 4.04132C7.36902 3.69422 6.86845 3.52066 6.22838 3.52066C5.76885 3.52066 5.33393 3.59504 4.92362 3.7438C4.52973 3.89256 4.08661 4.09091 3.59424 4.33884L3.07726 4.58678C2.76544 4.75207 2.51925 4.87603 2.33872 4.95868C2.15819 5.02479 1.95304 5.05785 1.72327 5.05785C1.31297 5.05785 0.968313 4.8843 0.689307 4.53719C0.410302 4.17355 0.270799 3.73554 0.270799 3.22314C0.270799 2.87603 0.328242 2.58678 0.443126 2.35537C0.558011 2.12397 0.754956 1.90083 1.03396 1.68595C1.73968 1.15703 2.56849 0.743802 3.52039 0.446281C4.4887 0.14876 5.46522 0 6.44995 0C7.66444 0 8.73123 0.198347 9.6503 0.595041C10.5858 0.991736 11.2997 1.55372 11.7921 2.28099C12.3009 3.00827 12.5552 3.85124 12.5552 4.80992C12.5552 5.71901 12.3173 6.52066 11.8413 7.21488C11.3818 7.89256 10.7335 8.38843 9.89648 8.70248Z" fill="white"/>
<path d="M26.0117 0.0991738C26.6682 0.0991738 27.2016 0.289256 27.6119 0.669422C28.0386 1.03306 28.252 1.50413 28.252 2.08264V15.8182C28.252 16.4463 28.055 16.9421 27.6611 17.3058C27.2673 17.6694 26.7421 17.8512 26.0856 17.8512C25.4783 17.8512 24.9778 17.6942 24.5839 17.3802C24.2064 17.0496 23.993 16.6033 23.9438 16.0413C23.5992 16.6198 23.0904 17.0744 22.4175 17.405C21.761 17.7355 21.0307 17.9008 20.2265 17.9008C19.1925 17.9008 18.2652 17.6364 17.4446 17.1074C16.6404 16.562 16.0086 15.8017 15.549 14.8264C15.0895 13.8512 14.8597 12.7355 14.8597 11.4793C14.8597 10.2231 15.0813 9.12397 15.5244 8.18182C15.984 7.22314 16.6158 6.4876 17.42 5.97521C18.2406 5.46281 19.1761 5.20661 20.2265 5.20661C20.9978 5.20661 21.7036 5.36364 22.3436 5.67769C23.0001 5.99174 23.5089 6.41322 23.87 6.94215V2.00827C23.87 1.42975 24.0587 0.966942 24.4362 0.619836C24.8301 0.272728 25.3553 0.0991738 26.0117 0.0991738ZM21.5559 14.6033C22.3272 14.6033 22.9181 14.3388 23.3284 13.8099C23.7387 13.281 23.9438 12.5207 23.9438 11.5289C23.9438 10.5537 23.7387 9.80992 23.3284 9.29752C22.9181 8.7686 22.3272 8.50413 21.5559 8.50413C20.8009 8.50413 20.2183 8.76033 19.808 9.27273C19.3977 9.78512 19.1925 10.5207 19.1925 11.4793C19.1925 12.4711 19.3977 13.2397 19.808 13.7851C20.2347 14.3306 20.8173 14.6033 21.5559 14.6033Z" fill="white"/>
<path d="M35.5882 17.9008C34.4886 17.9008 33.5613 17.8182 32.8063 17.6529C32.0514 17.4876 31.3867 17.2231 30.8123 16.8595C30.5825 16.7438 30.402 16.5455 30.2707 16.2645C30.1394 15.9835 30.0737 15.6694 30.0737 15.3223C30.0737 14.876 30.1886 14.5124 30.4184 14.2314C30.6646 13.9339 30.9682 13.7851 31.3292 13.7851C31.5754 13.7851 31.8052 13.8182 32.0186 13.8843C32.2319 13.9339 32.4945 14.0248 32.8063 14.157C33.3315 14.3388 33.7911 14.4793 34.1849 14.5785C34.5953 14.6777 35.1122 14.7273 35.7359 14.7273C36.179 14.7273 36.5237 14.6694 36.7699 14.5537C37.0324 14.4215 37.1637 14.2397 37.1637 14.0083C37.1637 13.8264 37.0981 13.686 36.9668 13.5868C36.8519 13.4876 36.6221 13.3967 36.2775 13.314C35.9328 13.2149 35.3502 13.0826 34.5296 12.9174C33.0689 12.6364 32.0103 12.2149 31.3539 11.6529C30.7138 11.0744 30.3938 10.2645 30.3938 9.22314C30.3938 8.46281 30.6235 7.77686 31.0831 7.16529C31.559 6.55372 32.2073 6.07438 33.0279 5.72727C33.8485 5.38017 34.7676 5.20661 35.7851 5.20661C36.5237 5.20661 37.2376 5.29752 37.9269 5.47934C38.6326 5.66116 39.2563 5.91736 39.7979 6.24793C40.3067 6.54546 40.561 7.02479 40.561 7.68595C40.561 8.14876 40.4379 8.53719 40.1918 8.85124C39.9456 9.16529 39.642 9.32231 39.2809 9.32231C38.8542 9.32231 38.3454 9.18182 37.7546 8.90083C37.3607 8.71901 37.0078 8.58678 36.696 8.50413C36.4006 8.40496 36.0477 8.35537 35.6374 8.35537C35.2271 8.35537 34.9071 8.42149 34.6773 8.55372C34.4475 8.66942 34.3327 8.84298 34.3327 9.07438C34.3327 9.33884 34.4886 9.54546 34.8004 9.69422C35.1286 9.84298 35.7687 10.0083 36.7206 10.1901C38.3126 10.4711 39.4368 10.9008 40.0933 11.4793C40.7498 12.0413 41.078 12.8595 41.078 13.9339C41.078 15.1405 40.5775 16.1074 39.5763 16.8347C38.5916 17.5455 37.2622 17.9008 35.5882 17.9008Z" fill="white"/>
<path d="M48.7154 17.9008C46.746 17.9008 45.1868 17.3388 44.038 16.2149C42.8891 15.0909 42.3147 13.562 42.3147 11.6281C42.3147 10.3554 42.5937 9.23141 43.1517 8.2562C43.7097 7.28099 44.4893 6.52893 45.4904 6C46.508 5.47108 47.665 5.20661 48.9616 5.20661C49.6509 5.20661 50.3402 5.29752 51.0295 5.47934C51.7188 5.66116 52.3261 5.91736 52.8512 6.24793C53.36 6.56198 53.6144 7.04132 53.6144 7.68595C53.6144 8.19835 53.4913 8.61984 53.2451 8.95041C53.0154 9.26446 52.7117 9.42149 52.3343 9.42149C52.0881 9.42149 51.8501 9.38843 51.6203 9.32231C51.3906 9.23967 51.1362 9.12397 50.8572 8.97521C50.5289 8.82645 50.2499 8.71901 50.0202 8.65289C49.7904 8.57025 49.536 8.52893 49.257 8.52893C47.6322 8.52893 46.8198 9.52893 46.8198 11.5289C46.8198 12.5207 47.025 13.281 47.4353 13.8099C47.862 14.3223 48.4692 14.5785 49.257 14.5785C49.536 14.5785 49.7904 14.5455 50.0202 14.4793C50.2663 14.3967 50.5371 14.281 50.8326 14.1322C51.1608 13.9835 51.4234 13.876 51.6203 13.8099C51.8337 13.7273 52.0635 13.686 52.3097 13.686C52.6871 13.686 52.9908 13.8512 53.2205 14.1818C53.4667 14.4959 53.5898 14.9091 53.5898 15.4215C53.5898 15.7355 53.5241 16.0248 53.3928 16.2893C53.2616 16.5372 53.081 16.7273 52.8512 16.8595C51.7188 17.5537 50.3402 17.9008 48.7154 17.9008Z" fill="white"/>
<path d="M63.437 5.20661C64.8485 5.20661 65.8989 5.64463 66.5882 6.52066C67.2775 7.38017 67.6221 8.69422 67.6221 10.4628V15.8182C67.6221 16.4463 67.4252 16.9421 67.0313 17.3058C66.6374 17.6694 66.104 17.8512 65.4311 17.8512C64.7582 17.8512 64.2248 17.6694 63.8309 17.3058C63.437 16.9421 63.2401 16.4463 63.2401 15.8182V10.3636C63.2401 9.17355 62.7313 8.57851 61.7138 8.57851C61.0573 8.57851 60.5321 8.79339 60.1382 9.22314C59.7607 9.63636 59.572 10.1983 59.572 10.9091V15.8182C59.572 16.4463 59.375 16.9421 58.9812 17.3058C58.5873 17.6694 58.0539 17.8512 57.381 17.8512C56.7081 17.8512 56.1747 17.6694 55.7808 17.3058C55.3869 16.9421 55.19 16.4463 55.19 15.8182V2.08264C55.19 1.50413 55.3951 1.03306 55.8054 0.669422C56.2157 0.289256 56.7573 0.0991738 57.4302 0.0991738C58.0703 0.0991738 58.5873 0.272728 58.9812 0.619836C59.375 0.966942 59.572 1.42975 59.572 2.00827V6.96694C60.0151 6.38843 60.5649 5.95041 61.2214 5.65289C61.8779 5.35537 62.6164 5.20661 63.437 5.20661Z" fill="white"/>
<path d="M76.2008 17.9008C74.8714 17.9008 73.6979 17.6446 72.6804 17.1322C71.6792 16.6033 70.8997 15.8595 70.3417 14.9008C69.8001 13.9422 69.5293 12.8182 69.5293 11.5289C69.5293 10.2397 69.8001 9.12397 70.3417 8.18182C70.8997 7.22314 71.6792 6.4876 72.6804 5.97521C73.6815 5.46281 74.855 5.20661 76.2008 5.20661C77.5466 5.20661 78.72 5.46281 79.7212 5.97521C80.7223 6.4876 81.4937 7.22314 82.0353 8.18182C82.5933 9.12397 82.8723 10.2397 82.8723 11.5289C82.8723 12.8182 82.5933 13.9422 82.0353 14.9008C81.4937 15.8595 80.7223 16.6033 79.7212 17.1322C78.72 17.6446 77.5466 17.9008 76.2008 17.9008ZM76.2008 14.6033C77.7599 14.6033 78.5395 13.5785 78.5395 11.5289C78.5395 9.47934 77.7599 8.45455 76.2008 8.45455C74.6416 8.45455 73.862 9.47934 73.862 11.5289C73.862 13.5785 74.6416 14.6033 76.2008 14.6033Z" fill="white"/>
<path d="M90.962 17.9008C89.6326 17.9008 88.4592 17.6446 87.4416 17.1322C86.4405 16.6033 85.6609 15.8595 85.1029 14.9008C84.5613 13.9422 84.2905 12.8182 84.2905 11.5289C84.2905 10.2397 84.5613 9.12397 85.1029 8.18182C85.6609 7.22314 86.4405 6.4876 87.4416 5.97521C88.4428 5.46281 89.6162 5.20661 90.962 5.20661C92.3078 5.20661 93.4813 5.46281 94.4824 5.97521C95.4835 6.4876 96.2549 7.22314 96.7965 8.18182C97.3545 9.12397 97.6335 10.2397 97.6335 11.5289C97.6335 12.8182 97.3545 13.9422 96.7965 14.9008C96.2549 15.8595 95.4835 16.6033 94.4824 17.1322C93.4813 17.6446 92.3078 17.9008 90.962 17.9008ZM90.962 14.6033C92.5212 14.6033 93.3007 13.5785 93.3007 11.5289C93.3007 9.47934 92.5212 8.45455 90.962 8.45455C89.4029 8.45455 88.6233 9.47934 88.6233 11.5289C88.6233 13.5785 89.4029 14.6033 90.962 14.6033Z" fill="white"/>
<path d="M101.809 17.8512C101.185 17.8512 100.66 17.686 100.233 17.3554C99.8231 17.0083 99.618 16.4959 99.618 15.8182V2.15703C99.618 1.47934 99.8231 0.966942 100.233 0.619836C100.66 0.272728 101.185 0.0991738 101.809 0.0991738C102.433 0.0991738 102.95 0.272728 103.36 0.619836C103.787 0.966942 104 1.47934 104 2.15703V15.8182C104 16.4959 103.787 17.0083 103.36 17.3554C102.95 17.686 102.433 17.8512 101.809 17.8512Z" fill="white"/>
<path d="M67.4002 4.13558L64.3955 10.0992C80.5807 3.32236 97.1799 7.23035 103.456 10.0314C102.588 8.29205 100.772 4.66418 100.452 4.06781C100.131 3.47145 99.4723 3.32236 99.183 3.32236H68.7356C67.9344 3.32236 67.5115 3.86451 67.4002 4.13558Z" fill="#860FE3"/>
</svg>
