<svg width="117" height="25" viewBox="0 0 117 25" fill="none" xmlns="http://www.w3.org/2000/svg">
<path d="M94.7177 19.8221C92.9134 19.7612 92.0613 20.812 91.8609 21.3451C82.1779 21.406 77.6521 23.8071 76.5996 25.0001L79.7571 19.3652H109.152L112.234 24.6955C110.31 22.2588 101.509 21.4466 97.3489 21.3451C97.2236 20.8628 96.5219 19.883 94.7177 19.8221Z" fill="#860FE3"/>
<path d="M11.1335 9.88918C12.2229 10.2085 13.0722 10.7908 13.6815 11.636C14.3093 12.4812 14.6232 13.5049 14.6232 14.707C14.6232 15.8527 14.3185 16.8482 13.7092 17.6935C13.0999 18.5387 12.2321 19.1961 11.1058 19.6657C9.99803 20.1165 8.69635 20.3419 7.2008 20.3419C6.00067 20.3419 4.84669 20.1822 3.73888 19.8629C2.63106 19.5248 1.67095 19.0458 0.858557 18.426C0.544676 18.1818 0.323113 17.9283 0.193868 17.6653C0.0646226 17.3835 0 17.0548 0 16.6792C0 16.0969 0.156941 15.6086 0.470822 15.2141C0.784702 14.8009 1.17244 14.5943 1.63403 14.5943C1.89252 14.5943 2.12331 14.6412 2.32641 14.7352C2.52951 14.8103 2.80647 14.9418 3.15727 15.1296C3.23113 15.1672 3.31421 15.2141 3.40653 15.2705C3.51731 15.308 3.63733 15.355 3.76657 15.4113C4.35741 15.7119 4.88362 15.9467 5.34521 16.1157C5.82526 16.266 6.36071 16.3411 6.95154 16.3411C7.9855 16.3411 8.72404 16.1721 9.16717 15.834C9.62876 15.4959 9.85956 14.9324 9.85956 14.1435C9.85956 13.411 9.62876 12.8851 9.16717 12.5657C8.70558 12.2464 7.94857 12.0868 6.89615 12.0868H5.17904C4.62513 12.0868 4.19123 11.8896 3.87735 11.4951C3.56347 11.1007 3.40653 10.6311 3.40653 10.0864C3.40653 9.5417 3.56347 9.07213 3.87735 8.67769C4.19123 8.28325 4.62513 8.08603 5.17904 8.08603H6.39763C7.41313 8.08603 8.15167 7.93576 8.61326 7.63524C9.07485 7.33471 9.30565 6.85575 9.30565 6.19835C9.30565 5.50338 9.10255 4.96807 8.69635 4.59241C8.29015 4.19797 7.72701 4.00075 7.00693 4.00075C6.48995 4.00075 6.00067 4.08527 5.53908 4.25432C5.09595 4.42337 4.59743 4.64876 4.04353 4.9305L3.46192 5.21225C3.11111 5.40007 2.83416 5.54095 2.63106 5.63486C2.42796 5.70999 2.19717 5.74756 1.93868 5.74756C1.47709 5.74756 1.08935 5.55034 0.775471 5.1559C0.46159 4.74268 0.304649 4.24493 0.304649 3.66266C0.304649 3.26822 0.369272 2.93952 0.498517 2.67656C0.627762 2.4136 0.849325 2.16003 1.16321 1.91585C1.95714 1.3148 2.88955 0.84523 3.96044 0.507138C5.04979 0.169046 6.14837 0 7.25619 0C8.6225 0 9.82263 0.225394 10.8566 0.676183C11.909 1.12697 12.7122 1.76559 13.2661 2.59204C13.8385 3.41848 14.1246 4.37641 14.1246 5.46582C14.1246 6.49887 13.8569 7.40984 13.3215 8.19872C12.8045 8.96882 12.0752 9.53231 11.1335 9.88918Z" fill="black"/>
<path d="M29.2632 0.112697C30.0017 0.112697 30.6018 0.328701 31.0634 0.760707C31.5434 1.17393 31.7835 1.70924 31.7835 2.36664V17.9752C31.7835 18.689 31.5619 19.2524 31.1188 19.6657C30.6757 20.0789 30.0848 20.2855 29.3463 20.2855C28.6631 20.2855 28.1 20.1071 27.6569 19.7502C27.2322 19.3745 26.9922 18.8674 26.9368 18.2288C26.5491 18.8862 25.9767 19.4027 25.2197 19.7784C24.4811 20.154 23.6595 20.3419 22.7548 20.3419C21.5916 20.3419 20.5484 20.0413 19.6252 19.4403C18.7205 18.8204 18.0096 17.9564 17.4927 16.8482C16.9757 15.74 16.7172 14.4722 16.7172 13.0447C16.7172 11.6172 16.9664 10.3681 17.465 9.29752C17.9819 8.20812 18.6928 7.37228 19.5975 6.79001C20.5207 6.20774 21.5731 5.91661 22.7548 5.91661C23.6226 5.91661 24.4165 6.09504 25.1366 6.45192C25.8751 6.80879 26.4475 7.28775 26.8537 7.88881V2.28212C26.8537 1.62472 27.066 1.0988 27.4907 0.704359C27.9338 0.309918 28.5247 0.112697 29.2632 0.112697ZM24.2503 16.5947C25.1181 16.5947 25.7828 16.2941 26.2444 15.6931C26.706 15.092 26.9368 14.228 26.9368 13.1011C26.9368 11.9929 26.706 11.1476 26.2444 10.5654C25.7828 9.96431 25.1181 9.66379 24.2503 9.66379C23.401 9.66379 22.7456 9.95492 22.284 10.5372C21.8224 11.1195 21.5916 11.9553 21.5916 13.0447C21.5916 14.1717 21.8224 15.0451 22.284 15.6649C22.764 16.2847 23.4195 16.5947 24.2503 16.5947Z" fill="black"/>
<path d="M40.0367 20.3419C38.7996 20.3419 37.7564 20.2479 36.9071 20.0601C36.0578 19.8723 35.31 19.5718 34.6638 19.1585C34.4053 19.0271 34.2022 18.8017 34.0545 18.4823C33.9068 18.163 33.8329 17.8062 33.8329 17.4117C33.8329 16.9046 33.9622 16.4914 34.2207 16.1721C34.4976 15.834 34.8392 15.6649 35.2454 15.6649C35.5224 15.6649 35.7808 15.7025 36.0209 15.7776C36.2609 15.834 36.5563 15.9373 36.9071 16.0875C37.498 16.2941 38.0149 16.4538 38.4581 16.5665C38.9197 16.6792 39.5013 16.7355 40.2029 16.7355C40.7014 16.7355 41.0891 16.6698 41.3661 16.5383C41.6615 16.3881 41.8092 16.1814 41.8092 15.9185C41.8092 15.7119 41.7354 15.5522 41.5876 15.4395C41.4584 15.3268 41.1999 15.2235 40.8122 15.1296C40.4244 15.0169 39.769 14.8666 38.8458 14.6788C37.2025 14.3595 36.0116 13.8805 35.2731 13.2419C34.553 12.5845 34.193 11.6642 34.193 10.4808C34.193 9.61683 34.4515 8.83734 34.9684 8.14238C35.5039 7.44741 36.2332 6.90271 37.1564 6.50827C38.0796 6.11383 39.1135 5.91661 40.2583 5.91661C41.0891 5.91661 41.8923 6.01991 42.6678 6.22652C43.4617 6.43313 44.1633 6.72427 44.7726 7.09993C45.345 7.43802 45.6312 7.98272 45.6312 8.73404C45.6312 9.25996 45.4927 9.70135 45.2157 10.0582C44.9388 10.4151 44.5972 10.5935 44.191 10.5935C43.711 10.5935 43.1386 10.4339 42.4739 10.1146C42.0308 9.90796 41.6338 9.7577 41.283 9.66379C40.9506 9.55109 40.5537 9.49474 40.0921 9.49474C39.6305 9.49474 39.2705 9.56987 39.012 9.72014C38.7535 9.85162 38.6242 10.0488 38.6242 10.3118C38.6242 10.6123 38.7996 10.8471 39.1504 11.0162C39.5197 11.1852 40.2398 11.373 41.3107 11.5796C43.1017 11.8989 44.3664 12.3873 45.105 13.0447C45.8435 13.6833 46.2128 14.6131 46.2128 15.834C46.2128 17.2051 45.6496 18.3039 44.5233 19.1304C43.4155 19.938 41.92 20.3419 40.0367 20.3419Z" fill="black"/>
<path d="M54.8048 20.3419C52.5892 20.3419 50.8352 19.7032 49.5427 18.426C48.2503 17.1488 47.604 15.4113 47.604 13.2138C47.604 11.7675 47.9179 10.4902 48.5457 9.38204C49.1734 8.27386 50.0505 7.41923 51.1767 6.81818C52.3215 6.21713 53.6232 5.91661 55.0818 5.91661C55.8573 5.91661 56.6327 6.01991 57.4082 6.22652C58.1837 6.43313 58.8668 6.72427 59.4576 7.09993C60.03 7.4568 60.3162 8.0015 60.3162 8.73404C60.3162 9.3163 60.1777 9.79527 59.9008 10.1709C59.6423 10.5278 59.3007 10.7062 58.876 10.7062C58.5991 10.7062 58.3314 10.6687 58.0729 10.5935C57.8144 10.4996 57.5282 10.3681 57.2143 10.1991C56.8451 10.0301 56.5312 9.90796 56.2727 9.83283C56.0142 9.73892 55.728 9.69196 55.4141 9.69196C53.5862 9.69196 52.6723 10.8283 52.6723 13.1011C52.6723 14.228 52.9031 15.092 53.3647 15.6931C53.8447 16.2754 54.5279 16.5665 55.4141 16.5665C55.728 16.5665 56.0142 16.5289 56.2727 16.4538C56.5496 16.3599 56.8543 16.2284 57.1866 16.0594C57.5559 15.8903 57.8513 15.7682 58.0729 15.6931C58.3129 15.5992 58.5714 15.5522 58.8484 15.5522C59.273 15.5522 59.6146 15.74 59.8731 16.1157C60.15 16.4726 60.2885 16.9422 60.2885 17.5244C60.2885 17.8813 60.2147 18.21 60.067 18.5105C59.9192 18.7923 59.7161 19.0083 59.4576 19.1585C58.1837 19.9474 56.6327 20.3419 54.8048 20.3419Z" fill="black"/>
<path d="M71.3667 5.91661C72.9545 5.91661 74.1362 6.41435 74.9117 7.40984C75.6871 8.38655 76.0749 9.87979 76.0749 11.8896V17.9752C76.0749 18.689 75.8533 19.2524 75.4102 19.6657C74.9671 20.0789 74.367 20.2855 73.61 20.2855C72.853 20.2855 72.2529 20.0789 71.8098 19.6657C71.3667 19.2524 71.1451 18.689 71.1451 17.9752V11.7769C71.1451 10.4245 70.5727 9.74831 69.428 9.74831C68.6894 9.74831 68.0986 9.99249 67.6555 10.4808C67.2308 10.9504 67.0185 11.589 67.0185 12.3967V17.9752C67.0185 18.689 66.7969 19.2524 66.3538 19.6657C65.9107 20.0789 65.3106 20.2855 64.5536 20.2855C63.7966 20.2855 63.1965 20.0789 62.7534 19.6657C62.3103 19.2524 62.0887 18.689 62.0887 17.9752V2.36664C62.0887 1.70924 62.3195 1.17393 62.7811 0.760707C63.2427 0.328701 63.852 0.112697 64.609 0.112697C65.3291 0.112697 65.9107 0.309918 66.3538 0.704359C66.7969 1.0988 67.0185 1.62472 67.0185 2.28212V7.91698C67.517 7.25958 68.1355 6.76183 68.8741 6.42374C69.6126 6.08565 70.4435 5.91661 71.3667 5.91661Z" fill="black"/>
<path d="M85.7259 20.3419C84.2303 20.3419 82.9102 20.0507 81.7654 19.4684C80.6391 18.8674 79.7621 18.0222 79.1344 16.9328C78.5251 15.8434 78.2204 14.5661 78.2204 13.1011C78.2204 11.636 78.5251 10.3681 79.1344 9.29752C79.7621 8.20812 80.6391 7.37228 81.7654 6.79001C82.8917 6.20774 84.2118 5.91661 85.7259 5.91661C87.2399 5.91661 88.56 6.20774 89.6863 6.79001C90.8126 7.37228 91.6804 8.20812 92.2897 9.29752C92.9174 10.3681 93.2313 11.636 93.2313 13.1011C93.2313 14.5661 92.9174 15.8434 92.2897 16.9328C91.6804 18.0222 90.8126 18.8674 89.6863 19.4684C88.56 20.0507 87.2399 20.3419 85.7259 20.3419ZM85.7259 16.5947C87.4799 16.5947 88.3569 15.4301 88.3569 13.1011C88.3569 10.772 87.4799 9.60744 85.7259 9.60744C83.9718 9.60744 83.0948 10.772 83.0948 13.1011C83.0948 15.4301 83.9718 16.5947 85.7259 16.5947Z" fill="black"/>
<path d="M102.332 20.3419C100.837 20.3419 99.5166 20.0507 98.3718 19.4684C97.2455 18.8674 96.3685 18.0222 95.7408 16.9328C95.1315 15.8434 94.8268 14.5661 94.8268 13.1011C94.8268 11.636 95.1315 10.3681 95.7408 9.29752C96.3685 8.20812 97.2455 7.37228 98.3718 6.79001C99.4981 6.20774 100.818 5.91661 102.332 5.91661C103.846 5.91661 105.166 6.20774 106.293 6.79001C107.419 7.37228 108.287 8.20812 108.896 9.29752C109.524 10.3681 109.838 11.636 109.838 13.1011C109.838 14.5661 109.524 15.8434 108.896 16.9328C108.287 18.0222 107.419 18.8674 106.293 19.4684C105.166 20.0507 103.846 20.3419 102.332 20.3419ZM102.332 16.5947C104.086 16.5947 104.963 15.4301 104.963 13.1011C104.963 10.772 104.086 9.60744 102.332 9.60744C100.578 9.60744 99.7012 10.772 99.7012 13.1011C99.7012 15.4301 100.578 16.5947 102.332 16.5947Z" fill="black"/>
<path d="M114.535 20.2855C113.833 20.2855 113.243 20.0977 112.763 19.722C112.301 19.3276 112.07 18.7453 112.07 17.9752V2.45116C112.07 1.68107 112.301 1.0988 112.763 0.704359C113.243 0.309918 113.833 0.112697 114.535 0.112697C115.237 0.112697 115.818 0.309918 116.28 0.704359C116.76 1.0988 117 1.68107 117 2.45116V17.9752C117 18.7453 116.76 19.3276 116.28 19.722C115.818 20.0977 115.237 20.2855 114.535 20.2855Z" fill="black"/>
<path d="M75.8251 4.69951L72.4448 11.4764C90.6532 3.77539 109.327 8.21629 116.388 11.3994C115.412 9.42277 113.369 5.30018 113.008 4.6225C112.647 3.94481 111.906 3.77539 111.581 3.77539H77.3274C76.426 3.77539 75.9503 4.39147 75.8251 4.69951Z" fill="#860FE3"/>
</svg>
